<?xml version="1.0" standalone="no"?>
<!DOCTYPE svg PUBLIC "-//W3C//DTD SVG 20010904//EN"
 "http://www.w3.org/TR/2001/REC-SVG-20010904/DTD/svg10.dtd">
<svg version="1.0" xmlns="http://www.w3.org/2000/svg"
 width="1024.000000pt" height="1024.000000pt" viewBox="0 0 1024.000000 1024.000000"
 preserveAspectRatio="xMidYMid meet">

<g transform="translate(0.000000,1024.000000) scale(0.100000,-0.100000)"
fill="#000000" stroke="none">
<path d="M5033 8270 c-87 -16 -151 -46 -358 -166 -110 -64 -339 -197 -510
-296 -170 -99 -339 -197 -375 -218 -36 -21 -110 -64 -165 -96 -55 -32 -147
-85 -205 -119 -58 -34 -255 -149 -439 -256 -279 -162 -346 -205 -401 -259 -75
-73 -122 -158 -139 -254 -8 -41 -11 -449 -11 -1288 0 -1364 -3 -1309 66 -1425
52 -88 115 -138 326 -261 l192 -112 -3 -94 c-4 -154 26 -186 174 -186 90 0
113 7 155 46 l25 23 45 -28 c25 -15 68 -40 95 -55 28 -16 160 -92 295 -171
135 -78 319 -185 410 -237 91 -53 268 -155 393 -228 126 -73 252 -143 280
-156 142 -64 291 -70 427 -17 41 16 327 173 635 350 308 176 620 355 693 397
l134 76 171 0 c189 0 220 8 261 62 23 32 33 124 19 178 l-9 35 130 76 c72 42
164 95 203 118 40 23 95 64 123 92 55 55 112 163 129 247 8 37 11 428 11 1280
0 1315 0 1303 -50 1403 -35 70 -95 143 -147 181 -26 20 -192 119 -368 220
-788 455 -1582 916 -1745 1013 -188 112 -328 149 -467 125z m-673 -1540 c32
-74 147 -340 255 -590 186 -428 377 -871 676 -1564 71 -164 129 -303 129 -307
0 -5 -125 -9 -277 -9 l-278 0 -120 270 -119 270 -560 -2 -561 -3 -110 -267
-110 -268 -268 0 c-265 0 -268 0 -262 20 4 11 76 186 162 388 86 202 172 408
193 457 20 50 171 407 335 795 164 388 321 760 349 828 l51 122 228 -2 228 -3
59 -135z m1256 -475 c320 -666 456 -946 459 -942 1 1 66 128 145 282 79 154
225 440 325 635 100 195 215 419 254 498 l72 142 270 0 269 0 0 -1305 0 -1305
-250 0 -250 0 -2 755 -3 754 -213 -402 c-206 -389 -318 -599 -463 -872 -39
-71 -82 -154 -97 -182 l-26 -53 -96 0 -95 0 -69 158 c-38 86 -133 303 -211
482 -188 427 -449 1024 -678 1548 l-184 422 275 -2 276 -3 292 -610z m-2076
-2622 c52 -157 97 -290 98 -295 2 -4 -21 -8 -51 -8 l-54 0 -24 80 -23 81 -95
-3 -95 -3 -24 -77 -23 -78 -53 0 -53 0 101 295 101 295 50 0 50 -1 95 -286z
m513 276 c39 -10 39 -10 32 -52 -4 -23 -8 -43 -9 -44 -1 -1 -23 5 -49 14 -80
26 -147 1 -147 -56 0 -35 30 -63 102 -95 71 -32 125 -84 134 -131 22 -122 -60
-209 -196 -208 -36 0 -83 7 -105 15 -35 13 -40 19 -43 49 -4 53 9 64 47 44 44
-22 120 -29 151 -13 14 8 31 26 39 42 12 25 11 31 -5 53 -11 13 -55 44 -99 68
-98 53 -129 93 -128 165 1 65 28 110 83 138 49 24 128 29 193 11z m607 -34 l0
-45 -82 0 -83 0 3 -251 3 -250 -51 3 -51 3 1 248 1 247 -86 0 -85 0 0 45 0 45
215 0 215 0 0 -45z m439 -237 c52 -156 96 -289 99 -295 3 -10 -11 -13 -50 -13
l-54 0 -23 80 -24 81 -95 -3 -96 -3 -23 -77 -24 -78 -50 0 c-35 0 -50 4 -47
13 2 6 46 139 98 295 l95 282 50 0 50 0 94 -282z m581 237 l0 -45 -85 0 -85 0
0 -250 0 -250 -50 0 -50 0 0 250 0 250 -80 0 -80 0 0 45 0 45 215 0 215 0 0
-45z m220 -250 l0 -295 -50 0 -50 0 0 295 0 295 50 0 50 0 0 -295z m415 114
c61 -99 115 -188 122 -197 10 -14 12 23 13 181 l0 197 50 0 50 0 0 -295 0
-295 -47 0 -48 1 -110 175 c-60 97 -116 189 -124 205 -8 16 -17 29 -20 29 -3
0 -5 -92 -3 -205 l3 -205 -50 0 -51 0 0 295 0 295 53 0 52 -1 110 -180z m765
136 l0 -45 -120 0 -120 0 0 -70 0 -70 110 0 110 0 0 -45 0 -44 -107 -3 -108
-3 -3 -87 -3 -88 126 0 125 0 0 -45 0 -45 -175 0 -175 0 0 295 0 295 170 0
170 0 0 -45z"/>
<path d="M4046 6204 c-33 -86 -162 -426 -241 -634 -53 -140 -99 -258 -101
-262 -3 -4 159 -8 359 -8 l365 0 -43 113 c-23 61 -75 191 -115 287 -39 96
-101 247 -137 335 -80 196 -78 192 -87 169z"/>
<path d="M3388 3780 c-3 -8 -19 -59 -36 -112 l-30 -98 70 0 c58 0 69 3 64 15
-4 12 -48 156 -61 200 -1 6 -5 3 -7 -5z"/>
<path d="M4926 3696 c-16 -50 -31 -99 -33 -108 -5 -16 3 -18 61 -18 77 0 74
-13 27 134 l-27 84 -28 -92z"/>
</g>
</svg>
